{
    "asset" : {
        "generator" : "Khronos glTF Blender I/O v3.2.40",
        "version" : "2.0"
    },
    "scene" : 0,
    "scenes" : [
        {
            "name" : "Scene",
            "nodes" : [
                0
            ]
        }
    ],
    "nodes" : [
        {
            "mesh" : 0,
            "name" : "Handgun"
        }
    ],
    "materials" : [
        {
            "doubleSided" : true,
            "name" : "grip",
            "pbrMetallicRoughness" : {
                "baseColorTexture" : {
                    "index" : 0
                },
                "metallicFactor" : 0,
                "roughnessFactor" : 0.2928932309150696
            }
        },
        {
            "doubleSided" : true,
            "name" : "Side Lower",
            "pbrMetallicRoughness" : {
                "baseColorTexture" : {
                    "index" : 1
                },
                "metallicFactor" : 0,
                "roughnessFactor" : 0.5
            }
        },
        {
            "doubleSided" : true,
            "name" : "Side Back",
            "pbrMetallicRoughness" : {
                "baseColorTexture" : {
                    "index" : 2
                },
                "metallicFactor" : 0,
                "roughnessFactor" : 0.5
            }
        }
    ],
    "meshes" : [
        {
            "name" : "Cube.001",
            "primitives" : [
                {
                    "attributes" : {
                        "POSITION" : 0,
                        "NORMAL" : 1,
                        "TEXCOORD_0" : 2
                    },
                    "indices" : 3,
                    "material" : 0
                },
                {
                    "attributes" : {
                        "POSITION" : 4,
                        "NORMAL" : 5,
                        "TEXCOORD_0" : 6
                    },
                    "indices" : 7,
                    "material" : 1
                },
                {
                    "attributes" : {
                        "POSITION" : 8,
                        "NORMAL" : 9,
                        "TEXCOORD_0" : 10
                    },
                    "indices" : 11,
                    "material" : 2
                }
            ]
        }
    ],
    "textures" : [
        {
            "sampler" : 0,
            "source" : 0
        },
        {
            "sampler" : 0,
            "source" : 1
        },
        {
            "sampler" : 0,
            "source" : 2
        }
    ],
    "images" : [
        {
            "mimeType" : "image/png",
            "name" : "hangun_grip",
            "uri" : "hangun_grip.png"
        },
        {
            "mimeType" : "image/png",
            "name" : "handgun_side_lower",
            "uri" : "handgun_side_lower.png"
        },
        {
            "mimeType" : "image/png",
            "name" : "handgun_side_back",
            "uri" : "handgun_side_back.png"
        }
    ],
    "accessors" : [
        {
            "bufferView" : 0,
            "componentType" : 5126,
            "count" : 164,
            "max" : [
                18.70775604248047,
                63.233245849609375,
                57.23847961425781
            ],
            "min" : [
                -21.235591888427734,
                -109.00590515136719,
                -174.85885620117188
            ],
            "type" : "VEC3"
        },
        {
            "bufferView" : 1,
            "componentType" : 5126,
            "count" : 164,
            "type" : "VEC3"
        },
        {
            "bufferView" : 2,
            "componentType" : 5126,
            "count" : 164,
            "type" : "VEC2"
        },
        {
            "bufferView" : 3,
            "componentType" : 5123,
            "count" : 174,
            "type" : "SCALAR"
        },
        {
            "bufferView" : 4,
            "componentType" : 5126,
            "count" : 94,
            "max" : [
                18.707746505737305,
                50.138023376464844,
                46.03546142578125
            ],
            "min" : [
                -21.2356014251709,
                -29.995887756347656,
                -174.85885620117188
            ],
            "type" : "VEC3"
        },
        {
            "bufferView" : 5,
            "componentType" : 5126,
            "count" : 94,
            "type" : "VEC3"
        },
        {
            "bufferView" : 6,
            "componentType" : 5126,
            "count" : 94,
            "type" : "VEC2"
        },
        {
            "bufferView" : 7,
            "componentType" : 5123,
            "count" : 114,
            "type" : "SCALAR"
        },
        {
            "bufferView" : 8,
            "componentType" : 5126,
            "count" : 66,
            "max" : [
                18.707746505737305,
                63.233245849609375,
                46.03546142578125
            ],
            "min" : [
                -21.2356014251709,
                -109.00590515136719,
                -174.85885620117188
            ],
            "type" : "VEC3"
        },
        {
            "bufferView" : 9,
            "componentType" : 5126,
            "count" : 66,
            "type" : "VEC3"
        },
        {
            "bufferView" : 10,
            "componentType" : 5126,
            "count" : 66,
            "type" : "VEC2"
        },
        {
            "bufferView" : 11,
            "componentType" : 5123,
            "count" : 72,
            "type" : "SCALAR"
        }
    ],
    "bufferViews" : [
        {
            "buffer" : 0,
            "byteLength" : 1968,
            "byteOffset" : 0
        },
        {
            "buffer" : 0,
            "byteLength" : 1968,
            "byteOffset" : 1968
        },
        {
            "buffer" : 0,
            "byteLength" : 1312,
            "byteOffset" : 3936
        },
        {
            "buffer" : 0,
            "byteLength" : 348,
            "byteOffset" : 5248
        },
        {
            "buffer" : 0,
            "byteLength" : 1128,
            "byteOffset" : 5596
        },
        {
            "buffer" : 0,
            "byteLength" : 1128,
            "byteOffset" : 6724
        },
        {
            "buffer" : 0,
            "byteLength" : 752,
            "byteOffset" : 7852
        },
        {
            "buffer" : 0,
            "byteLength" : 228,
            "byteOffset" : 8604
        },
        {
            "buffer" : 0,
            "byteLength" : 792,
            "byteOffset" : 8832
        },
        {
            "buffer" : 0,
            "byteLength" : 792,
            "byteOffset" : 9624
        },
        {
            "buffer" : 0,
            "byteLength" : 528,
            "byteOffset" : 10416
        },
        {
            "buffer" : 0,
            "byteLength" : 144,
            "byteOffset" : 10944
        }
    ],
    "samplers" : [
        {
            "magFilter" : 9729,
            "minFilter" : 9987
        }
    ],
    "buffers" : [
        {
            "byteLength" : 11088,
            "uri" : "handgun.bin"
        }
    ]
}
