{
    "asset" : {
        "generator" : "Khronos glTF Blender I/O v1.6.16",
        "version" : "2.0"
    },
    "scene" : 0,
    "scenes" : [
        {
            "name" : "Scene",
            "nodes" : [
                0
            ]
        }
    ],
    "nodes" : [
        {
            "mesh" : 0,
            "name" : "boo"
        }
    ],
    "materials" : [
        {
            "doubleSided" : true,
            "name" : "Material.033_boo_grp.png",
            "pbrMetallicRoughness" : {
                "baseColorTexture" : {
                    "index" : 0
                },
                "metallicFactor" : 0
            }
        },
        {
            "doubleSided" : true,
            "name" : "Material.032_boo_grp.png",
            "pbrMetallicRoughness" : {
                "baseColorTexture" : {
                    "index" : 1
                },
                "metallicFactor" : 0
            }
        },
        {
            "doubleSided" : true,
            "name" : "Material.031_boo_grp.png",
            "pbrMetallicRoughness" : {
                "baseColorTexture" : {
                    "index" : 2
                },
                "metallicFactor" : 0
            }
        }
    ],
    "meshes" : [
        {
            "name" : "boo",
            "primitives" : [
                {
                    "attributes" : {
                        "POSITION" : 0,
                        "NORMAL" : 1,
                        "TEXCOORD_0" : 2
                    },
                    "indices" : 3,
                    "material" : 0
                },
                {
                    "attributes" : {
                        "POSITION" : 4,
                        "NORMAL" : 5,
                        "TEXCOORD_0" : 6
                    },
                    "indices" : 7,
                    "material" : 1
                },
                {
                    "attributes" : {
                        "POSITION" : 8,
                        "NORMAL" : 9,
                        "TEXCOORD_0" : 10
                    },
                    "indices" : 11,
                    "material" : 2
                }
            ]
        }
    ],
    "textures" : [
        {
            "sampler" : 0,
            "source" : 0
        },
        {
            "sampler" : 0,
            "source" : 0
        },
        {
            "sampler" : 0,
            "source" : 0
        }
    ],
    "images" : [
        {
            "mimeType" : "image/png",
            "name" : "boo_grp",
            "uri" : "boo_grp.png"
        }
    ],
    "accessors" : [
        {
            "bufferView" : 0,
            "componentType" : 5126,
            "count" : 79,
            "max" : [
                164.451171875,
                235.68312072753906,
                155.48703002929688
            ],
            "min" : [
                -161.59080505371094,
                0.0004119873046875,
                -155.4993133544922
            ],
            "type" : "VEC3"
        },
        {
            "bufferView" : 1,
            "componentType" : 5126,
            "count" : 79,
            "type" : "VEC3"
        },
        {
            "bufferView" : 2,
            "componentType" : 5126,
            "count" : 79,
            "type" : "VEC2"
        },
        {
            "bufferView" : 3,
            "componentType" : 5123,
            "count" : 162,
            "type" : "SCALAR"
        },
        {
            "bufferView" : 4,
            "componentType" : 5126,
            "count" : 6,
            "max" : [
                91.80552673339844,
                202.51608276367188,
                -110.35794830322266
            ],
            "min" : [
                -83.8812484741211,
                61.15707015991211,
                -155.4993133544922
            ],
            "type" : "VEC3"
        },
        {
            "bufferView" : 5,
            "componentType" : 5126,
            "count" : 6,
            "type" : "VEC3"
        },
        {
            "bufferView" : 6,
            "componentType" : 5126,
            "count" : 6,
            "type" : "VEC2"
        },
        {
            "bufferView" : 7,
            "componentType" : 5123,
            "count" : 12,
            "type" : "SCALAR"
        },
        {
            "bufferView" : 8,
            "componentType" : 5126,
            "count" : 6,
            "max" : [
                91.80552673339844,
                118.02499389648438,
                -108.21083068847656
            ],
            "min" : [
                -83.8812484741211,
                9.541481018066406,
                -152.0796661376953
            ],
            "type" : "VEC3"
        },
        {
            "bufferView" : 9,
            "componentType" : 5126,
            "count" : 6,
            "type" : "VEC3"
        },
        {
            "bufferView" : 10,
            "componentType" : 5126,
            "count" : 6,
            "type" : "VEC2"
        },
        {
            "bufferView" : 11,
            "componentType" : 5123,
            "count" : 12,
            "type" : "SCALAR"
        }
    ],
    "bufferViews" : [
        {
            "buffer" : 0,
            "byteLength" : 948,
            "byteOffset" : 0
        },
        {
            "buffer" : 0,
            "byteLength" : 948,
            "byteOffset" : 948
        },
        {
            "buffer" : 0,
            "byteLength" : 632,
            "byteOffset" : 1896
        },
        {
            "buffer" : 0,
            "byteLength" : 324,
            "byteOffset" : 2528
        },
        {
            "buffer" : 0,
            "byteLength" : 72,
            "byteOffset" : 2852
        },
        {
            "buffer" : 0,
            "byteLength" : 72,
            "byteOffset" : 2924
        },
        {
            "buffer" : 0,
            "byteLength" : 48,
            "byteOffset" : 2996
        },
        {
            "buffer" : 0,
            "byteLength" : 24,
            "byteOffset" : 3044
        },
        {
            "buffer" : 0,
            "byteLength" : 72,
            "byteOffset" : 3068
        },
        {
            "buffer" : 0,
            "byteLength" : 72,
            "byteOffset" : 3140
        },
        {
            "buffer" : 0,
            "byteLength" : 48,
            "byteOffset" : 3212
        },
        {
            "buffer" : 0,
            "byteLength" : 24,
            "byteOffset" : 3260
        }
    ],
    "samplers" : [
        {
            "magFilter" : 9729,
            "minFilter" : 9987
        }
    ],
    "buffers" : [
        {
            "byteLength" : 3284,
            "uri" : "boo.bin"
        }
    ]
}
