{
    "asset" : {
        "generator" : "Khronos glTF Blender I/O v1.8.19",
        "version" : "2.0"
    },
    "scene" : 0,
    "scenes" : [
        {
            "name" : "Scene",
            "nodes" : [
                0
            ]
        }
    ],
    "nodes" : [
        {
            "mesh" : 0,
            "name" : "Shotgun"
        }
    ],
    "materials" : [
        {
            "doubleSided" : true,
            "name" : "BarrelLower_ClampSClampT_Barrel_Lower_BACK.psd",
            "pbrMetallicRoughness" : {
                "baseColorTexture" : {
                    "index" : 0
                },
                "metallicFactor" : 0,
                "roughnessFactor" : 0.7495102882385254
            }
        },
        {
            "doubleSided" : true,
            "name" : "BarrelLower_ClampSClampT_Barrel_Lower.png",
            "pbrMetallicRoughness" : {
                "baseColorTexture" : {
                    "index" : 1
                },
                "metallicFactor" : 0,
                "roughnessFactor" : 0.7495102882385254
            }
        },
        {
            "doubleSided" : true,
            "name" : "MainBody_ClampSClampT",
            "pbrMetallicRoughness" : {
                "baseColorTexture" : {
                    "index" : 2
                },
                "metallicFactor" : 0,
                "roughnessFactor" : 0.7495102882385254
            }
        },
        {
            "doubleSided" : true,
            "name" : "Top_ClampSClampT",
            "pbrMetallicRoughness" : {
                "baseColorTexture" : {
                    "index" : 3
                },
                "metallicFactor" : 0,
                "roughnessFactor" : 0.690034806728363
            }
        },
        {
            "alphaMode" : "BLEND",
            "doubleSided" : true,
            "name" : "Stock_ClampSClampT",
            "pbrMetallicRoughness" : {
                "baseColorTexture" : {
                    "index" : 4
                },
                "metallicFactor" : 0,
                "roughnessFactor" : 0.7495102882385254
            }
        },
        {
            "doubleSided" : true,
            "name" : "Handle_ClampSClampT",
            "pbrMetallicRoughness" : {
                "baseColorTexture" : {
                    "index" : 5
                },
                "metallicFactor" : 0,
                "roughnessFactor" : 0.7495102882385254
            }
        },
        {
            "doubleSided" : true,
            "name" : "Trigger_ClampSClampT",
            "pbrMetallicRoughness" : {
                "baseColorTexture" : {
                    "index" : 6
                },
                "metallicFactor" : 0,
                "roughnessFactor" : 0.690034806728363
            }
        },
        {
            "doubleSided" : true,
            "name" : "BarrelUpper_ClampSClampT_Barrel_UpperTile.png",
            "pbrMetallicRoughness" : {
                "baseColorTexture" : {
                    "index" : 7
                },
                "metallicFactor" : 0,
                "roughnessFactor" : 0.690034806728363
            }
        },
        {
            "doubleSided" : true,
            "name" : "BarrelUpper_ClampSClampT_Barrel_Upper.png",
            "pbrMetallicRoughness" : {
                "baseColorTexture" : {
                    "index" : 8
                },
                "metallicFactor" : 0,
                "roughnessFactor" : 0.690034806728363
            }
        },
        {
            "doubleSided" : true,
            "name" : "Grip_ClampSMirrorT",
            "pbrMetallicRoughness" : {
                "baseColorTexture" : {
                    "index" : 9
                },
                "metallicFactor" : 0,
                "roughnessFactor" : 0.7495102882385254
            }
        },
        {
            "doubleSided" : true,
            "name" : "Material.001",
            "pbrMetallicRoughness" : {
                "baseColorTexture" : {
                    "index" : 10
                },
                "metallicFactor" : 0,
                "roughnessFactor" : 0.5
            }
        }
    ],
    "meshes" : [
        {
            "name" : "Shotgun",
            "primitives" : [
                {
                    "attributes" : {
                        "POSITION" : 0,
                        "NORMAL" : 1,
                        "TEXCOORD_0" : 2
                    },
                    "indices" : 3,
                    "material" : 0
                },
                {
                    "attributes" : {
                        "POSITION" : 4,
                        "NORMAL" : 5,
                        "TEXCOORD_0" : 6
                    },
                    "indices" : 7,
                    "material" : 1
                },
                {
                    "attributes" : {
                        "POSITION" : 8,
                        "NORMAL" : 9,
                        "TEXCOORD_0" : 10
                    },
                    "indices" : 11,
                    "material" : 2
                },
                {
                    "attributes" : {
                        "POSITION" : 12,
                        "NORMAL" : 13,
                        "TEXCOORD_0" : 14
                    },
                    "indices" : 15,
                    "material" : 3
                },
                {
                    "attributes" : {
                        "POSITION" : 16,
                        "NORMAL" : 17,
                        "TEXCOORD_0" : 18
                    },
                    "indices" : 19,
                    "material" : 4
                },
                {
                    "attributes" : {
                        "POSITION" : 20,
                        "NORMAL" : 21,
                        "TEXCOORD_0" : 22
                    },
                    "indices" : 23,
                    "material" : 5
                },
                {
                    "attributes" : {
                        "POSITION" : 24,
                        "NORMAL" : 25,
                        "TEXCOORD_0" : 26
                    },
                    "indices" : 27,
                    "material" : 6
                },
                {
                    "attributes" : {
                        "POSITION" : 28,
                        "NORMAL" : 29,
                        "TEXCOORD_0" : 30
                    },
                    "indices" : 31,
                    "material" : 7
                },
                {
                    "attributes" : {
                        "POSITION" : 32,
                        "NORMAL" : 33,
                        "TEXCOORD_0" : 34
                    },
                    "indices" : 35,
                    "material" : 8
                },
                {
                    "attributes" : {
                        "POSITION" : 36,
                        "NORMAL" : 37,
                        "TEXCOORD_0" : 38
                    },
                    "indices" : 39,
                    "material" : 9
                },
                {
                    "attributes" : {
                        "POSITION" : 40,
                        "NORMAL" : 41,
                        "TEXCOORD_0" : 42
                    },
                    "indices" : 43,
                    "material" : 10
                }
            ]
        }
    ],
    "textures" : [
        {
            "sampler" : 0,
            "source" : 0
        },
        {
            "sampler" : 0,
            "source" : 1
        },
        {
            "sampler" : 0,
            "source" : 2
        },
        {
            "sampler" : 0,
            "source" : 3
        },
        {
            "sampler" : 0,
            "source" : 4
        },
        {
            "sampler" : 0,
            "source" : 5
        },
        {
            "sampler" : 0,
            "source" : 6
        },
        {
            "sampler" : 0,
            "source" : 7
        },
        {
            "sampler" : 0,
            "source" : 8
        },
        {
            "sampler" : 0,
            "source" : 9
        },
        {
            "sampler" : 0,
            "source" : 10
        }
    ],
    "images" : [
        {
            "mimeType" : "image/png",
            "name" : "Barrel_Lower BACK",
            "uri" : "Barrel_Lower%20BACK.png"
        },
        {
            "mimeType" : "image/png",
            "name" : "Barrel_Lower",
            "uri" : "Barrel_Lower.png"
        },
        {
            "mimeType" : "image/png",
            "name" : "MainBody",
            "uri" : "MainBody.png"
        },
        {
            "mimeType" : "image/png",
            "name" : "Top",
            "uri" : "Top.png"
        },
        {
            "mimeType" : "image/png",
            "name" : "Stock",
            "uri" : "Stock.png"
        },
        {
            "mimeType" : "image/png",
            "name" : "Handle",
            "uri" : "Handle.png"
        },
        {
            "mimeType" : "image/png",
            "name" : "Trigger",
            "uri" : "Trigger.png"
        },
        {
            "mimeType" : "image/png",
            "name" : "Barrel_UpperTile",
            "uri" : "Barrel_UpperTile.png"
        },
        {
            "mimeType" : "image/png",
            "name" : "Barrel_Upper",
            "uri" : "Barrel_Upper.png"
        },
        {
            "mimeType" : "image/png",
            "name" : "Grip",
            "uri" : "Grip.png"
        },
        {
            "mimeType" : "image/png",
            "name" : "skin",
            "uri" : "skin.png"
        }
    ],
    "accessors" : [
        {
            "bufferView" : 0,
            "componentType" : 5126,
            "count" : 56,
            "max" : [
                12.016430854797363,
                59.465965270996094,
                -25.12502098083496
            ],
            "min" : [
                -12.016444206237793,
                27.39678382873535,
                -372.7171936035156
            ],
            "type" : "VEC3"
        },
        {
            "bufferView" : 1,
            "componentType" : 5126,
            "count" : 56,
            "type" : "VEC3"
        },
        {
            "bufferView" : 2,
            "componentType" : 5126,
            "count" : 56,
            "type" : "VEC2"
        },
        {
            "bufferView" : 3,
            "componentType" : 5123,
            "count" : 60,
            "type" : "SCALAR"
        },
        {
            "bufferView" : 4,
            "componentType" : 5126,
            "count" : 30,
            "max" : [
                13.506115913391113,
                52.15715789794922,
                -202.37564086914062
            ],
            "min" : [
                -13.506175994873047,
                28.521366119384766,
                -484.3548278808594
            ],
            "type" : "VEC3"
        },
        {
            "bufferView" : 5,
            "componentType" : 5126,
            "count" : 30,
            "type" : "VEC3"
        },
        {
            "bufferView" : 6,
            "componentType" : 5126,
            "count" : 30,
            "type" : "VEC2"
        },
        {
            "bufferView" : 7,
            "componentType" : 5123,
            "count" : 30,
            "type" : "SCALAR"
        },
        {
            "bufferView" : 8,
            "componentType" : 5126,
            "count" : 70,
            "max" : [
                15.945344924926758,
                84.70447540283203,
                162.68955993652344
            ],
            "min" : [
                -15.945332527160645,
                25.251142501831055,
                -25.10224151611328
            ],
            "type" : "VEC3"
        },
        {
            "bufferView" : 9,
            "componentType" : 5126,
            "count" : 70,
            "type" : "VEC3"
        },
        {
            "bufferView" : 10,
            "componentType" : 5126,
            "count" : 70,
            "type" : "VEC2"
        },
        {
            "bufferView" : 11,
            "componentType" : 5123,
            "count" : 72,
            "type" : "SCALAR"
        },
        {
            "bufferView" : 12,
            "componentType" : 5126,
            "count" : 10,
            "max" : [
                9.715534210205078,
                84.70447540283203,
                146.1354522705078
            ],
            "min" : [
                -9.715526580810547,
                77.92491912841797,
                -25.10224151611328
            ],
            "type" : "VEC3"
        },
        {
            "bufferView" : 13,
            "componentType" : 5126,
            "count" : 10,
            "type" : "VEC3"
        },
        {
            "bufferView" : 14,
            "componentType" : 5126,
            "count" : 10,
            "type" : "VEC2"
        },
        {
            "bufferView" : 15,
            "componentType" : 5123,
            "count" : 12,
            "type" : "SCALAR"
        },
        {
            "bufferView" : 16,
            "componentType" : 5126,
            "count" : 90,
            "max" : [
                15.945351600646973,
                46.793861389160156,
                480.67156982421875
            ],
            "min" : [
                -15.9453125,
                -94.83016967773438,
                204.7491912841797
            ],
            "type" : "VEC3"
        },
        {
            "bufferView" : 17,
            "componentType" : 5126,
            "count" : 90,
            "type" : "VEC3"
        },
        {
            "bufferView" : 18,
            "componentType" : 5126,
            "count" : 90,
            "type" : "VEC2"
        },
        {
            "bufferView" : 19,
            "componentType" : 5123,
            "count" : 90,
            "type" : "SCALAR"
        },
        {
            "bufferView" : 20,
            "componentType" : 5126,
            "count" : 60,
            "max" : [
                15.945348739624023,
                77.92491912841797,
                227.66983032226562
            ],
            "min" : [
                -15.945318222045898,
                12.971732139587402,
                142.62217712402344
            ],
            "type" : "VEC3"
        },
        {
            "bufferView" : 21,
            "componentType" : 5126,
            "count" : 60,
            "type" : "VEC3"
        },
        {
            "bufferView" : 22,
            "componentType" : 5126,
            "count" : 60,
            "type" : "VEC2"
        },
        {
            "bufferView" : 23,
            "componentType" : 5123,
            "count" : 60,
            "type" : "SCALAR"
        },
        {
            "bufferView" : 24,
            "componentType" : 5126,
            "count" : 6,
            "max" : [
                8.709280518814921e-05,
                25.123153686523438,
                161.2028350830078
            ],
            "min" : [
                7.54899883759208e-05,
                -0.10061318427324295,
                62.79813003540039
            ],
            "type" : "VEC3"
        },
        {
            "bufferView" : 25,
            "componentType" : 5126,
            "count" : 6,
            "type" : "VEC3"
        },
        {
            "bufferView" : 26,
            "componentType" : 5126,
            "count" : 6,
            "type" : "VEC2"
        },
        {
            "bufferView" : 27,
            "componentType" : 5123,
            "count" : 6,
            "type" : "SCALAR"
        },
        {
            "bufferView" : 28,
            "componentType" : 5126,
            "count" : 36,
            "max" : [
                12.370535850524902,
                82.35277557373047,
                -24.836273193359375
            ],
            "min" : [
                -12.370562553405762,
                59.076820373535156,
                -279.0434875488281
            ],
            "type" : "VEC3"
        },
        {
            "bufferView" : 29,
            "componentType" : 5126,
            "count" : 36,
            "type" : "VEC3"
        },
        {
            "bufferView" : 30,
            "componentType" : 5126,
            "count" : 36,
            "type" : "VEC2"
        },
        {
            "bufferView" : 31,
            "componentType" : 5123,
            "count" : 36,
            "type" : "SCALAR"
        },
        {
            "bufferView" : 32,
            "componentType" : 5126,
            "count" : 36,
            "max" : [
                12.370512962341309,
                82.35273742675781,
                -279.0019836425781
            ],
            "min" : [
                -12.370576858520508,
                59.07678985595703,
                -442.3453674316406
            ],
            "type" : "VEC3"
        },
        {
            "bufferView" : 33,
            "componentType" : 5126,
            "count" : 36,
            "type" : "VEC3"
        },
        {
            "bufferView" : 34,
            "componentType" : 5126,
            "count" : 36,
            "type" : "VEC2"
        },
        {
            "bufferView" : 35,
            "componentType" : 5123,
            "count" : 36,
            "type" : "SCALAR"
        },
        {
            "bufferView" : 36,
            "componentType" : 5126,
            "count" : 52,
            "max" : [
                17.94892120361328,
                61.33932876586914,
                -108.30965423583984
            ],
            "min" : [
                -17.948955535888672,
                19.339282989501953,
                -287.8420104980469
            ],
            "type" : "VEC3"
        },
        {
            "bufferView" : 37,
            "componentType" : 5126,
            "count" : 52,
            "type" : "VEC3"
        },
        {
            "bufferView" : 38,
            "componentType" : 5126,
            "count" : 52,
            "type" : "VEC2"
        },
        {
            "bufferView" : 39,
            "componentType" : 5123,
            "count" : 54,
            "type" : "SCALAR"
        },
        {
            "bufferView" : 40,
            "componentType" : 5126,
            "count" : 123,
            "max" : [
                59.02738571166992,
                70.34657287597656,
                -28.11216163635254
            ],
            "min" : [
                -213.93797302246094,
                -187.0790252685547,
                -255.95242309570312
            ],
            "type" : "VEC3"
        },
        {
            "bufferView" : 41,
            "componentType" : 5126,
            "count" : 123,
            "type" : "VEC3"
        },
        {
            "bufferView" : 42,
            "componentType" : 5126,
            "count" : 123,
            "type" : "VEC2"
        },
        {
            "bufferView" : 43,
            "componentType" : 5123,
            "count" : 390,
            "type" : "SCALAR"
        }
    ],
    "bufferViews" : [
        {
            "buffer" : 0,
            "byteLength" : 672,
            "byteOffset" : 0
        },
        {
            "buffer" : 0,
            "byteLength" : 672,
            "byteOffset" : 672
        },
        {
            "buffer" : 0,
            "byteLength" : 448,
            "byteOffset" : 1344
        },
        {
            "buffer" : 0,
            "byteLength" : 120,
            "byteOffset" : 1792
        },
        {
            "buffer" : 0,
            "byteLength" : 360,
            "byteOffset" : 1912
        },
        {
            "buffer" : 0,
            "byteLength" : 360,
            "byteOffset" : 2272
        },
        {
            "buffer" : 0,
            "byteLength" : 240,
            "byteOffset" : 2632
        },
        {
            "buffer" : 0,
            "byteLength" : 60,
            "byteOffset" : 2872
        },
        {
            "buffer" : 0,
            "byteLength" : 840,
            "byteOffset" : 2932
        },
        {
            "buffer" : 0,
            "byteLength" : 840,
            "byteOffset" : 3772
        },
        {
            "buffer" : 0,
            "byteLength" : 560,
            "byteOffset" : 4612
        },
        {
            "buffer" : 0,
            "byteLength" : 144,
            "byteOffset" : 5172
        },
        {
            "buffer" : 0,
            "byteLength" : 120,
            "byteOffset" : 5316
        },
        {
            "buffer" : 0,
            "byteLength" : 120,
            "byteOffset" : 5436
        },
        {
            "buffer" : 0,
            "byteLength" : 80,
            "byteOffset" : 5556
        },
        {
            "buffer" : 0,
            "byteLength" : 24,
            "byteOffset" : 5636
        },
        {
            "buffer" : 0,
            "byteLength" : 1080,
            "byteOffset" : 5660
        },
        {
            "buffer" : 0,
            "byteLength" : 1080,
            "byteOffset" : 6740
        },
        {
            "buffer" : 0,
            "byteLength" : 720,
            "byteOffset" : 7820
        },
        {
            "buffer" : 0,
            "byteLength" : 180,
            "byteOffset" : 8540
        },
        {
            "buffer" : 0,
            "byteLength" : 720,
            "byteOffset" : 8720
        },
        {
            "buffer" : 0,
            "byteLength" : 720,
            "byteOffset" : 9440
        },
        {
            "buffer" : 0,
            "byteLength" : 480,
            "byteOffset" : 10160
        },
        {
            "buffer" : 0,
            "byteLength" : 120,
            "byteOffset" : 10640
        },
        {
            "buffer" : 0,
            "byteLength" : 72,
            "byteOffset" : 10760
        },
        {
            "buffer" : 0,
            "byteLength" : 72,
            "byteOffset" : 10832
        },
        {
            "buffer" : 0,
            "byteLength" : 48,
            "byteOffset" : 10904
        },
        {
            "buffer" : 0,
            "byteLength" : 12,
            "byteOffset" : 10952
        },
        {
            "buffer" : 0,
            "byteLength" : 432,
            "byteOffset" : 10964
        },
        {
            "buffer" : 0,
            "byteLength" : 432,
            "byteOffset" : 11396
        },
        {
            "buffer" : 0,
            "byteLength" : 288,
            "byteOffset" : 11828
        },
        {
            "buffer" : 0,
            "byteLength" : 72,
            "byteOffset" : 12116
        },
        {
            "buffer" : 0,
            "byteLength" : 432,
            "byteOffset" : 12188
        },
        {
            "buffer" : 0,
            "byteLength" : 432,
            "byteOffset" : 12620
        },
        {
            "buffer" : 0,
            "byteLength" : 288,
            "byteOffset" : 13052
        },
        {
            "buffer" : 0,
            "byteLength" : 72,
            "byteOffset" : 13340
        },
        {
            "buffer" : 0,
            "byteLength" : 624,
            "byteOffset" : 13412
        },
        {
            "buffer" : 0,
            "byteLength" : 624,
            "byteOffset" : 14036
        },
        {
            "buffer" : 0,
            "byteLength" : 416,
            "byteOffset" : 14660
        },
        {
            "buffer" : 0,
            "byteLength" : 108,
            "byteOffset" : 15076
        },
        {
            "buffer" : 0,
            "byteLength" : 1476,
            "byteOffset" : 15184
        },
        {
            "buffer" : 0,
            "byteLength" : 1476,
            "byteOffset" : 16660
        },
        {
            "buffer" : 0,
            "byteLength" : 984,
            "byteOffset" : 18136
        },
        {
            "buffer" : 0,
            "byteLength" : 780,
            "byteOffset" : 19120
        }
    ],
    "samplers" : [
        {
            "magFilter" : 9729,
            "minFilter" : 9987
        }
    ],
    "buffers" : [
        {
            "byteLength" : 19900,
            "uri" : "shotgun.bin"
        }
    ]
}
