{
    "asset" : {
        "generator" : "Khronos glTF Blender I/O v3.2.40",
        "version" : "2.0"
    },
    "scene" : 0,
    "scenes" : [
        {
            "name" : "Scene",
            "nodes" : [
                0
            ]
        }
    ],
    "nodes" : [
        {
            "mesh" : 0,
            "name" : "UZI"
        }
    ],
    "materials" : [
        {
            "doubleSided" : true,
            "name" : "Clip_ClampSClampT",
            "pbrMetallicRoughness" : {
                "baseColorTexture" : {
                    "index" : 0
                },
                "metallicFactor" : 0,
                "roughnessFactor" : 0.7495102882385254
            }
        },
        {
            "doubleSided" : true,
            "name" : "Edge_ClampSClampT_Barrel.psd",
            "pbrMetallicRoughness" : {
                "metallicFactor" : 0,
                "roughnessFactor" : 0.7495102882385254
            }
        },
        {
            "doubleSided" : true,
            "name" : "Edge_ClampSClampT_Barrel.png",
            "pbrMetallicRoughness" : {
                "baseColorTexture" : {
                    "index" : 1
                },
                "metallicFactor" : 0,
                "roughnessFactor" : 0.7495102882385254
            }
        },
        {
            "doubleSided" : true,
            "name" : "Side_ClampSClampT",
            "pbrMetallicRoughness" : {
                "baseColorTexture" : {
                    "index" : 2
                },
                "metallicFactor" : 0,
                "roughnessFactor" : 0.7495102882385254
            }
        },
        {
            "doubleSided" : true,
            "name" : "M_EdgeClampSClampT.001",
            "pbrMetallicRoughness" : {
                "baseColorTexture" : {
                    "index" : 3
                },
                "metallicFactor" : 0,
                "roughnessFactor" : 0.7534552216529846
            }
        },
        {
            "doubleSided" : true,
            "name" : "M_EdgeClampSClampT.001_Edge.bmp.001",
            "pbrMetallicRoughness" : {
                "baseColorTexture" : {
                    "index" : 4
                },
                "metallicFactor" : 0,
                "roughnessFactor" : 0.7534552216529846
            }
        },
        {
            "doubleSided" : true,
            "name" : "SideLower_ClampSClampT",
            "pbrMetallicRoughness" : {
                "baseColorTexture" : {
                    "index" : 5
                },
                "metallicFactor" : 0,
                "roughnessFactor" : 0.7534552216529846
            }
        },
        {
            "doubleSided" : true,
            "name" : "Top_ClampSClampT",
            "pbrMetallicRoughness" : {
                "baseColorTexture" : {
                    "index" : 6
                },
                "metallicFactor" : 0,
                "roughnessFactor" : 0.690034806728363
            }
        },
        {
            "doubleSided" : true,
            "name" : "Silencer_ClampSClampT",
            "pbrMetallicRoughness" : {
                "baseColorTexture" : {
                    "index" : 7
                },
                "metallicFactor" : 0,
                "roughnessFactor" : 0.690034806728363
            }
        }
    ],
    "meshes" : [
        {
            "name" : "UZI",
            "primitives" : [
                {
                    "attributes" : {
                        "POSITION" : 0,
                        "NORMAL" : 1,
                        "TEXCOORD_0" : 2
                    },
                    "indices" : 3,
                    "material" : 0
                },
                {
                    "attributes" : {
                        "POSITION" : 4,
                        "NORMAL" : 5,
                        "TEXCOORD_0" : 6
                    },
                    "indices" : 7,
                    "material" : 1
                },
                {
                    "attributes" : {
                        "POSITION" : 8,
                        "NORMAL" : 9,
                        "TEXCOORD_0" : 10
                    },
                    "indices" : 11,
                    "material" : 2
                },
                {
                    "attributes" : {
                        "POSITION" : 12,
                        "NORMAL" : 13,
                        "TEXCOORD_0" : 14
                    },
                    "indices" : 15,
                    "material" : 3
                },
                {
                    "attributes" : {
                        "POSITION" : 16,
                        "NORMAL" : 17,
                        "TEXCOORD_0" : 18
                    },
                    "indices" : 19,
                    "material" : 4
                },
                {
                    "attributes" : {
                        "POSITION" : 20,
                        "NORMAL" : 21,
                        "TEXCOORD_0" : 22
                    },
                    "indices" : 23,
                    "material" : 5
                },
                {
                    "attributes" : {
                        "POSITION" : 24,
                        "NORMAL" : 25,
                        "TEXCOORD_0" : 26
                    },
                    "indices" : 27,
                    "material" : 6
                },
                {
                    "attributes" : {
                        "POSITION" : 28,
                        "NORMAL" : 29,
                        "TEXCOORD_0" : 30
                    },
                    "indices" : 31,
                    "material" : 7
                },
                {
                    "attributes" : {
                        "POSITION" : 32,
                        "NORMAL" : 33,
                        "TEXCOORD_0" : 34
                    },
                    "indices" : 35,
                    "material" : 8
                }
            ]
        }
    ],
    "textures" : [
        {
            "sampler" : 0,
            "source" : 0
        },
        {
            "sampler" : 0,
            "source" : 1
        },
        {
            "sampler" : 0,
            "source" : 2
        },
        {
            "sampler" : 0,
            "source" : 3
        },
        {
            "sampler" : 0,
            "source" : 3
        },
        {
            "sampler" : 0,
            "source" : 4
        },
        {
            "sampler" : 0,
            "source" : 5
        },
        {
            "sampler" : 0,
            "source" : 6
        }
    ],
    "images" : [
        {
            "mimeType" : "image/png",
            "name" : "Clip",
            "uri" : "Clip.png"
        },
        {
            "mimeType" : "image/png",
            "name" : "Barrel",
            "uri" : "Barrel.png"
        },
        {
            "mimeType" : "image/png",
            "name" : "Side",
            "uri" : "Side.png"
        },
        {
            "mimeType" : "image/png",
            "name" : "Edge",
            "uri" : "Edge.png"
        },
        {
            "mimeType" : "image/png",
            "name" : "SideLower",
            "uri" : "SideLower.png"
        },
        {
            "mimeType" : "image/png",
            "name" : "Top",
            "uri" : "Top.png"
        },
        {
            "mimeType" : "image/png",
            "name" : "Silencer",
            "uri" : "Silencer.png"
        }
    ],
    "accessors" : [
        {
            "bufferView" : 0,
            "componentType" : 5126,
            "count" : 24,
            "max" : [
                11.000000953674316,
                -107.21792602539062,
                9.419305801391602
            ],
            "min" : [
                -11.00000286102295,
                -216.31948852539062,
                -34.58073806762695
            ],
            "type" : "VEC3"
        },
        {
            "bufferView" : 1,
            "componentType" : 5126,
            "count" : 24,
            "type" : "VEC3"
        },
        {
            "bufferView" : 2,
            "componentType" : 5126,
            "count" : 24,
            "type" : "VEC2"
        },
        {
            "bufferView" : 3,
            "componentType" : 5123,
            "count" : 24,
            "type" : "SCALAR"
        },
        {
            "bufferView" : 4,
            "componentType" : 5126,
            "count" : 6,
            "max" : [
                17.58007049560547,
                63.332740783691406,
                -171.1969451904297
            ],
            "min" : [
                -17.52179527282715,
                44.789039611816406,
                -171.19696044921875
            ],
            "type" : "VEC3"
        },
        {
            "bufferView" : 5,
            "componentType" : 5126,
            "count" : 6,
            "type" : "VEC3"
        },
        {
            "bufferView" : 6,
            "componentType" : 5126,
            "count" : 6,
            "type" : "VEC2"
        },
        {
            "bufferView" : 7,
            "componentType" : 5123,
            "count" : 6,
            "type" : "SCALAR"
        },
        {
            "bufferView" : 8,
            "componentType" : 5126,
            "count" : 165,
            "max" : [
                22.000011444091797,
                90.5548095703125,
                111.57199096679688
            ],
            "min" : [
                -22.000015258789062,
                -108.40599060058594,
                -171.19696044921875
            ],
            "type" : "VEC3"
        },
        {
            "bufferView" : 9,
            "componentType" : 5126,
            "count" : 165,
            "type" : "VEC3"
        },
        {
            "bufferView" : 10,
            "componentType" : 5126,
            "count" : 165,
            "type" : "VEC2"
        },
        {
            "bufferView" : 11,
            "componentType" : 5123,
            "count" : 165,
            "type" : "SCALAR"
        },
        {
            "bufferView" : 12,
            "componentType" : 5126,
            "count" : 18,
            "max" : [
                22.000011444091797,
                90.5548095703125,
                111.57199096679688
            ],
            "min" : [
                -22.000015258789062,
                31.802654266357422,
                -152.4280242919922
            ],
            "type" : "VEC3"
        },
        {
            "bufferView" : 13,
            "componentType" : 5126,
            "count" : 18,
            "type" : "VEC3"
        },
        {
            "bufferView" : 14,
            "componentType" : 5126,
            "count" : 18,
            "type" : "VEC2"
        },
        {
            "bufferView" : 15,
            "componentType" : 5123,
            "count" : 18,
            "type" : "SCALAR"
        },
        {
            "bufferView" : 16,
            "componentType" : 5126,
            "count" : 8,
            "max" : [
                17.098134994506836,
                110.8802490234375,
                98.24403381347656
            ],
            "min" : [
                -17.39082908630371,
                110.311767578125,
                76.0401382446289
            ],
            "type" : "VEC3"
        },
        {
            "bufferView" : 17,
            "componentType" : 5126,
            "count" : 8,
            "type" : "VEC3"
        },
        {
            "bufferView" : 18,
            "componentType" : 5126,
            "count" : 8,
            "type" : "VEC2"
        },
        {
            "bufferView" : 19,
            "componentType" : 5123,
            "count" : 12,
            "type" : "SCALAR"
        },
        {
            "bufferView" : 20,
            "componentType" : 5126,
            "count" : 40,
            "max" : [
                17.098134994506836,
                110.8802490234375,
                107.15377044677734
            ],
            "min" : [
                -17.39084815979004,
                90.67179870605469,
                -146.1746063232422
            ],
            "type" : "VEC3"
        },
        {
            "bufferView" : 21,
            "componentType" : 5126,
            "count" : 40,
            "type" : "VEC3"
        },
        {
            "bufferView" : 22,
            "componentType" : 5126,
            "count" : 40,
            "type" : "VEC2"
        },
        {
            "bufferView" : 23,
            "componentType" : 5123,
            "count" : 60,
            "type" : "SCALAR"
        },
        {
            "bufferView" : 24,
            "componentType" : 5126,
            "count" : 71,
            "max" : [
                19.80772590637207,
                110.8802490234375,
                107.15377044677734
            ],
            "min" : [
                -19.807727813720703,
                16.73263168334961,
                -219.1266326904297
            ],
            "type" : "VEC3"
        },
        {
            "bufferView" : 25,
            "componentType" : 5126,
            "count" : 71,
            "type" : "VEC3"
        },
        {
            "bufferView" : 26,
            "componentType" : 5126,
            "count" : 71,
            "type" : "VEC2"
        },
        {
            "bufferView" : 27,
            "componentType" : 5123,
            "count" : 93,
            "type" : "SCALAR"
        },
        {
            "bufferView" : 28,
            "componentType" : 5126,
            "count" : 4,
            "max" : [
                22.000011444091797,
                90.5548095703125,
                111.57198333740234
            ],
            "min" : [
                -22.000015258789062,
                90.55473327636719,
                -152.4280242919922
            ],
            "type" : "VEC3"
        },
        {
            "bufferView" : 29,
            "componentType" : 5126,
            "count" : 4,
            "type" : "VEC3"
        },
        {
            "bufferView" : 30,
            "componentType" : 5126,
            "count" : 4,
            "type" : "VEC2"
        },
        {
            "bufferView" : 31,
            "componentType" : 5123,
            "count" : 6,
            "type" : "SCALAR"
        },
        {
            "bufferView" : 32,
            "componentType" : 5126,
            "count" : 36,
            "max" : [
                9.345284461975098,
                65.40351867675781,
                -170.67388916015625
            ],
            "min" : [
                -10.197810173034668,
                46.72804641723633,
                -219.1266326904297
            ],
            "type" : "VEC3"
        },
        {
            "bufferView" : 33,
            "componentType" : 5126,
            "count" : 36,
            "type" : "VEC3"
        },
        {
            "bufferView" : 34,
            "componentType" : 5126,
            "count" : 36,
            "type" : "VEC2"
        },
        {
            "bufferView" : 35,
            "componentType" : 5123,
            "count" : 36,
            "type" : "SCALAR"
        }
    ],
    "bufferViews" : [
        {
            "buffer" : 0,
            "byteLength" : 288,
            "byteOffset" : 0
        },
        {
            "buffer" : 0,
            "byteLength" : 288,
            "byteOffset" : 288
        },
        {
            "buffer" : 0,
            "byteLength" : 192,
            "byteOffset" : 576
        },
        {
            "buffer" : 0,
            "byteLength" : 48,
            "byteOffset" : 768
        },
        {
            "buffer" : 0,
            "byteLength" : 72,
            "byteOffset" : 816
        },
        {
            "buffer" : 0,
            "byteLength" : 72,
            "byteOffset" : 888
        },
        {
            "buffer" : 0,
            "byteLength" : 48,
            "byteOffset" : 960
        },
        {
            "buffer" : 0,
            "byteLength" : 12,
            "byteOffset" : 1008
        },
        {
            "buffer" : 0,
            "byteLength" : 1980,
            "byteOffset" : 1020
        },
        {
            "buffer" : 0,
            "byteLength" : 1980,
            "byteOffset" : 3000
        },
        {
            "buffer" : 0,
            "byteLength" : 1320,
            "byteOffset" : 4980
        },
        {
            "buffer" : 0,
            "byteLength" : 330,
            "byteOffset" : 6300
        },
        {
            "buffer" : 0,
            "byteLength" : 216,
            "byteOffset" : 6632
        },
        {
            "buffer" : 0,
            "byteLength" : 216,
            "byteOffset" : 6848
        },
        {
            "buffer" : 0,
            "byteLength" : 144,
            "byteOffset" : 7064
        },
        {
            "buffer" : 0,
            "byteLength" : 36,
            "byteOffset" : 7208
        },
        {
            "buffer" : 0,
            "byteLength" : 96,
            "byteOffset" : 7244
        },
        {
            "buffer" : 0,
            "byteLength" : 96,
            "byteOffset" : 7340
        },
        {
            "buffer" : 0,
            "byteLength" : 64,
            "byteOffset" : 7436
        },
        {
            "buffer" : 0,
            "byteLength" : 24,
            "byteOffset" : 7500
        },
        {
            "buffer" : 0,
            "byteLength" : 480,
            "byteOffset" : 7524
        },
        {
            "buffer" : 0,
            "byteLength" : 480,
            "byteOffset" : 8004
        },
        {
            "buffer" : 0,
            "byteLength" : 320,
            "byteOffset" : 8484
        },
        {
            "buffer" : 0,
            "byteLength" : 120,
            "byteOffset" : 8804
        },
        {
            "buffer" : 0,
            "byteLength" : 852,
            "byteOffset" : 8924
        },
        {
            "buffer" : 0,
            "byteLength" : 852,
            "byteOffset" : 9776
        },
        {
            "buffer" : 0,
            "byteLength" : 568,
            "byteOffset" : 10628
        },
        {
            "buffer" : 0,
            "byteLength" : 186,
            "byteOffset" : 11196
        },
        {
            "buffer" : 0,
            "byteLength" : 48,
            "byteOffset" : 11384
        },
        {
            "buffer" : 0,
            "byteLength" : 48,
            "byteOffset" : 11432
        },
        {
            "buffer" : 0,
            "byteLength" : 32,
            "byteOffset" : 11480
        },
        {
            "buffer" : 0,
            "byteLength" : 12,
            "byteOffset" : 11512
        },
        {
            "buffer" : 0,
            "byteLength" : 432,
            "byteOffset" : 11524
        },
        {
            "buffer" : 0,
            "byteLength" : 432,
            "byteOffset" : 11956
        },
        {
            "buffer" : 0,
            "byteLength" : 288,
            "byteOffset" : 12388
        },
        {
            "buffer" : 0,
            "byteLength" : 72,
            "byteOffset" : 12676
        }
    ],
    "samplers" : [
        {
            "magFilter" : 9729,
            "minFilter" : 9987
        }
    ],
    "buffers" : [
        {
            "byteLength" : 12748,
            "uri" : "uzi.bin"
        }
    ]
}
