{
    "asset" : {
        "generator" : "Khronos glTF Blender I/O v3.2.40",
        "version" : "2.0"
    },
    "scene" : 0,
    "scenes" : [
        {
            "name" : "Scene",
            "nodes" : [
                0
            ]
        }
    ],
    "nodes" : [
        {
            "mesh" : 0,
            "name" : "UZI_MuzzleFlash"
        }
    ],
    "materials" : [
        {
            "doubleSided" : true,
            "extras" : {
                "shadingMode" : "UnlitTextured"
            },
            "name" : "MuzzleFlash_Bottom_CullBothClampSClampT",
            "pbrMetallicRoughness" : {
                "baseColorTexture" : {
                    "index" : 0
                },
                "metallicFactor" : 0,
                "roughnessFactor" : 0.690034806728363
            }
        },
        {
            "doubleSided" : true,
            "extras" : {
                "shadingMode" : "UnlitTextured"
            },
            "name" : "MuzzleFlash_Top_CullBothClampSClampT",
            "pbrMetallicRoughness" : {
                "baseColorTexture" : {
                    "index" : 1
                },
                "metallicFactor" : 0,
                "roughnessFactor" : 0.690034806728363
            }
        }
    ],
    "meshes" : [
        {
            "name" : "UZI_MuzzleFlash",
            "primitives" : [
                {
                    "attributes" : {
                        "POSITION" : 0,
                        "NORMAL" : 1,
                        "TEXCOORD_0" : 2
                    },
                    "indices" : 3,
                    "material" : 0
                },
                {
                    "attributes" : {
                        "POSITION" : 4,
                        "NORMAL" : 5,
                        "TEXCOORD_0" : 6
                    },
                    "indices" : 7,
                    "material" : 1
                }
            ]
        }
    ],
    "textures" : [
        {
            "sampler" : 0,
            "source" : 0
        },
        {
            "sampler" : 0,
            "source" : 1
        }
    ],
    "images" : [
        {
            "mimeType" : "image/png",
            "name" : "UZIMuzzleFlash_Bottom",
            "uri" : "UZIMuzzleFlash_Bottom.png"
        },
        {
            "mimeType" : "image/png",
            "name" : "UZIMuzzleFlash_Top",
            "uri" : "UZIMuzzleFlash_Top.png"
        }
    ],
    "accessors" : [
        {
            "bufferView" : 0,
            "componentType" : 5126,
            "count" : 6,
            "max" : [
                96.56420135498047,
                151.4681396484375,
                -203.5509490966797
            ],
            "min" : [
                3.999999989900971e-06,
                -52.125362396240234,
                -231.62416076660156
            ],
            "type" : "VEC3"
        },
        {
            "bufferView" : 1,
            "componentType" : 5126,
            "count" : 6,
            "type" : "VEC3"
        },
        {
            "bufferView" : 2,
            "componentType" : 5126,
            "count" : 6,
            "type" : "VEC2"
        },
        {
            "bufferView" : 3,
            "componentType" : 5123,
            "count" : 6,
            "type" : "SCALAR"
        },
        {
            "bufferView" : 4,
            "componentType" : 5126,
            "count" : 6,
            "max" : [
                3.999999989900971e-06,
                151.4681396484375,
                -203.5509490966797
            ],
            "min" : [
                -96.56420135498047,
                -52.125362396240234,
                -231.62416076660156
            ],
            "type" : "VEC3"
        },
        {
            "bufferView" : 5,
            "componentType" : 5126,
            "count" : 6,
            "type" : "VEC3"
        },
        {
            "bufferView" : 6,
            "componentType" : 5126,
            "count" : 6,
            "type" : "VEC2"
        },
        {
            "bufferView" : 7,
            "componentType" : 5123,
            "count" : 6,
            "type" : "SCALAR"
        }
    ],
    "bufferViews" : [
        {
            "buffer" : 0,
            "byteLength" : 72,
            "byteOffset" : 0
        },
        {
            "buffer" : 0,
            "byteLength" : 72,
            "byteOffset" : 72
        },
        {
            "buffer" : 0,
            "byteLength" : 48,
            "byteOffset" : 144
        },
        {
            "buffer" : 0,
            "byteLength" : 12,
            "byteOffset" : 192
        },
        {
            "buffer" : 0,
            "byteLength" : 72,
            "byteOffset" : 204
        },
        {
            "buffer" : 0,
            "byteLength" : 72,
            "byteOffset" : 276
        },
        {
            "buffer" : 0,
            "byteLength" : 48,
            "byteOffset" : 348
        },
        {
            "buffer" : 0,
            "byteLength" : 12,
            "byteOffset" : 396
        }
    ],
    "samplers" : [
        {
            "magFilter" : 9729,
            "minFilter" : 9987
        }
    ],
    "buffers" : [
        {
            "byteLength" : 408,
            "uri" : "uzi_muzzle_flash.bin"
        }
    ]
}
