{
    "asset" : {
        "generator" : "Khronos glTF Blender I/O v3.2.40",
        "version" : "2.0"
    },
    "scene" : 0,
    "scenes" : [
        {
            "name" : "Scene",
            "nodes" : [
                25,
                26
            ]
        }
    ],
    "nodes" : [
        {
            "mesh" : 0,
            "name" : "ar15_ammo_spawn",
            "translation" : [
                -14.328980445861816,
                0,
                -10.916799545288086
            ]
        },
        {
            "extras" : {
                "layers" : "wall"
            },
            "mesh" : 1,
            "name" : "back wall",
            "scale" : [
                75,
                10,
                1
            ],
            "translation" : [
                0,
                10,
                -128.64474487304688
            ]
        },
        {
            "extras" : {
                "layers" : "wall"
            },
            "mesh" : 2,
            "name" : "back wall.001"
        },
        {
            "extras" : {
                "layers" : "wall"
            },
            "mesh" : 3,
            "name" : "back wall.002"
        },
        {
            "mesh" : 4,
            "name" : "Cube",
            "translation" : [
                50,
                0,
                -80
            ]
        },
        {
            "mesh" : 4,
            "name" : "Cube.001",
            "translation" : [
                25,
                0,
                -5
            ]
        },
        {
            "mesh" : 4,
            "name" : "Cube.002",
            "translation" : [
                50,
                0,
                -5
            ]
        },
        {
            "mesh" : 4,
            "name" : "Cube.003",
            "translation" : [
                -25,
                0,
                -5
            ]
        },
        {
            "mesh" : 4,
            "name" : "Cube.004",
            "translation" : [
                -55,
                0,
                -5
            ]
        },
        {
            "mesh" : 4,
            "name" : "Cube.005",
            "translation" : [
                25,
                0,
                -80
            ]
        },
        {
            "mesh" : 4,
            "name" : "Cube.006",
            "translation" : [
                25,
                0,
                -45
            ]
        },
        {
            "mesh" : 4,
            "name" : "Cube.007",
            "translation" : [
                50,
                0,
                -45
            ]
        },
        {
            "mesh" : 4,
            "name" : "Cube.008",
            "translation" : [
                -25,
                0,
                -45
            ]
        },
        {
            "mesh" : 4,
            "name" : "Cube.009",
            "translation" : [
                -55,
                0,
                -45
            ]
        },
        {
            "mesh" : 4,
            "name" : "Cube.010",
            "translation" : [
                -55,
                0,
                -80
            ]
        },
        {
            "mesh" : 4,
            "name" : "Cube.011",
            "translation" : [
                25,
                0,
                30
            ]
        },
        {
            "mesh" : 4,
            "name" : "Cube.012",
            "translation" : [
                50,
                0,
                30
            ]
        },
        {
            "mesh" : 4,
            "name" : "Cube.013",
            "translation" : [
                -25,
                0,
                30
            ]
        },
        {
            "mesh" : 4,
            "name" : "Cube.014",
            "translation" : [
                -55,
                0,
                30
            ]
        },
        {
            "mesh" : 5,
            "name" : "Cube.015",
            "translation" : [
                -25,
                0,
                -80
            ]
        },
        {
            "extras" : {
                "layers" : "ground"
            },
            "mesh" : 6,
            "name" : "gorund plane"
        },
        {
            "mesh" : 7,
            "name" : "shotgun_ammo_spawn",
            "translation" : [
                0.6462078094482422,
                0,
                -10.916799545288086
            ]
        },
        {
            "mesh" : 8,
            "name" : "uzi_ammo_spawn",
            "translation" : [
                14.45822811126709,
                0,
                -10.916799545288086
            ]
        },
        {
            "name" : "Zombie Spawn",
            "scale" : [
                10,
                10,
                10
            ],
            "translation" : [
                0,
                0,
                -62.27423095703125
            ]
        },
        {
            "children" : [
                0,
                1,
                2,
                3,
                4,
                5,
                6,
                7,
                8,
                9,
                10,
                11,
                12,
                13,
                14,
                15,
                16,
                17,
                18,
                19,
                20,
                21,
                22,
                23
            ],
            "name" : "Scene"
        },
        {
            "children" : [
                24
            ],
            "name" : "Spooky Level"
        },
        {
            "name" : "Player Ref Point",
            "translation" : [
                0,
                0,
                45
            ]
        }
    ],
    "materials" : [
        {
            "doubleSided" : true,
            "name" : "ar15 ammo",
            "pbrMetallicRoughness" : {
                "baseColorFactor" : [
                    0.8000000715255737,
                    0.13363927602767944,
                    0.055571090430021286,
                    1
                ],
                "metallicFactor" : 0,
                "roughnessFactor" : 0.5
            }
        },
        {
            "doubleSided" : true,
            "name" : "Material.001",
            "pbrMetallicRoughness" : {
                "baseColorTexture" : {
                    "index" : 0
                },
                "metallicFactor" : 0,
                "roughnessFactor" : 0.5
            }
        },
        {
            "doubleSided" : true,
            "name" : "ground_tex",
            "pbrMetallicRoughness" : {
                "baseColorTexture" : {
                    "index" : 1
                },
                "metallicFactor" : 0,
                "roughnessFactor" : 0.5
            }
        },
        {
            "doubleSided" : true,
            "name" : "shotgun ammo",
            "pbrMetallicRoughness" : {
                "baseColorFactor" : [
                    0.12364369630813599,
                    0.8000000715255737,
                    0.15836936235427856,
                    1
                ],
                "metallicFactor" : 0,
                "roughnessFactor" : 0.5
            }
        },
        {
            "doubleSided" : true,
            "name" : "uzi ammo",
            "pbrMetallicRoughness" : {
                "baseColorFactor" : [
                    0.0321921780705452,
                    0.6073289513587952,
                    0.8000000715255737,
                    1
                ],
                "metallicFactor" : 0,
                "roughnessFactor" : 0.5
            }
        }
    ],
    "meshes" : [
        {
            "name" : "ammo_spawn",
            "primitives" : [
                {
                    "attributes" : {
                        "POSITION" : 0,
                        "NORMAL" : 1,
                        "TEXCOORD_0" : 2
                    },
                    "indices" : 3,
                    "material" : 0
                }
            ]
        },
        {
            "name" : "Cube",
            "primitives" : [
                {
                    "attributes" : {
                        "POSITION" : 4,
                        "NORMAL" : 5,
                        "TEXCOORD_0" : 6
                    },
                    "indices" : 7,
                    "material" : 1
                }
            ]
        },
        {
            "name" : "Cube.003",
            "primitives" : [
                {
                    "attributes" : {
                        "POSITION" : 8,
                        "NORMAL" : 9,
                        "TEXCOORD_0" : 10
                    },
                    "indices" : 11,
                    "material" : 1
                }
            ]
        },
        {
            "name" : "Cube.004",
            "primitives" : [
                {
                    "attributes" : {
                        "POSITION" : 12,
                        "NORMAL" : 13,
                        "TEXCOORD_0" : 14
                    },
                    "indices" : 15,
                    "material" : 1
                }
            ]
        },
        {
            "name" : "Cube.001",
            "primitives" : [
                {
                    "attributes" : {
                        "POSITION" : 16,
                        "NORMAL" : 17,
                        "TEXCOORD_0" : 18
                    },
                    "indices" : 3,
                    "material" : 1
                }
            ]
        },
        {
            "name" : "Cube.002",
            "primitives" : [
                {
                    "attributes" : {
                        "POSITION" : 19,
                        "NORMAL" : 20,
                        "TEXCOORD_0" : 21
                    },
                    "indices" : 3,
                    "material" : 1
                }
            ]
        },
        {
            "name" : "Plane",
            "primitives" : [
                {
                    "attributes" : {
                        "POSITION" : 22,
                        "NORMAL" : 23,
                        "TEXCOORD_0" : 24
                    },
                    "indices" : 25,
                    "material" : 2
                }
            ]
        },
        {
            "name" : "shotgun ammo",
            "primitives" : [
                {
                    "attributes" : {
                        "POSITION" : 26,
                        "NORMAL" : 27,
                        "TEXCOORD_0" : 28
                    },
                    "indices" : 3,
                    "material" : 3
                }
            ]
        },
        {
            "name" : "uzi",
            "primitives" : [
                {
                    "attributes" : {
                        "POSITION" : 29,
                        "NORMAL" : 30,
                        "TEXCOORD_0" : 31
                    },
                    "indices" : 3,
                    "material" : 4
                }
            ]
        }
    ],
    "textures" : [
        {
            "sampler" : 0,
            "source" : 0
        },
        {
            "sampler" : 0,
            "source" : 1
        }
    ],
    "images" : [
        {
            "mimeType" : "image/png",
            "name" : "stone",
            "uri" : "stone.png"
        },
        {
            "mimeType" : "image/png",
            "name" : "grass",
            "uri" : "grass.png"
        }
    ],
    "accessors" : [
        {
            "bufferView" : 0,
            "componentType" : 5126,
            "count" : 24,
            "max" : [
                1,
                2,
                1
            ],
            "min" : [
                -1,
                0,
                -1
            ],
            "type" : "VEC3"
        },
        {
            "bufferView" : 1,
            "componentType" : 5126,
            "count" : 24,
            "type" : "VEC3"
        },
        {
            "bufferView" : 2,
            "componentType" : 5126,
            "count" : 24,
            "type" : "VEC2"
        },
        {
            "bufferView" : 3,
            "componentType" : 5123,
            "count" : 36,
            "type" : "SCALAR"
        },
        {
            "bufferView" : 4,
            "componentType" : 5126,
            "count" : 20,
            "max" : [
                1,
                1,
                1
            ],
            "min" : [
                -1,
                -1,
                -1
            ],
            "type" : "VEC3"
        },
        {
            "bufferView" : 5,
            "componentType" : 5126,
            "count" : 20,
            "type" : "VEC3"
        },
        {
            "bufferView" : 6,
            "componentType" : 5126,
            "count" : 20,
            "type" : "VEC2"
        },
        {
            "bufferView" : 7,
            "componentType" : 5123,
            "count" : 30,
            "type" : "SCALAR"
        },
        {
            "bufferView" : 8,
            "componentType" : 5126,
            "count" : 20,
            "max" : [
                -67.39167785644531,
                20,
                20.291522979736328
            ],
            "min" : [
                -69.39167785644531,
                0,
                -129.70848083496094
            ],
            "type" : "VEC3"
        },
        {
            "bufferView" : 9,
            "componentType" : 5126,
            "count" : 20,
            "type" : "VEC3"
        },
        {
            "bufferView" : 10,
            "componentType" : 5126,
            "count" : 20,
            "type" : "VEC2"
        },
        {
            "bufferView" : 11,
            "componentType" : 5123,
            "count" : 30,
            "type" : "SCALAR"
        },
        {
            "bufferView" : 12,
            "componentType" : 5126,
            "count" : 20,
            "max" : [
                71.82756042480469,
                20,
                20.078651428222656
            ],
            "min" : [
                69.82756042480469,
                0,
                -129.92135620117188
            ],
            "type" : "VEC3"
        },
        {
            "bufferView" : 13,
            "componentType" : 5126,
            "count" : 20,
            "type" : "VEC3"
        },
        {
            "bufferView" : 14,
            "componentType" : 5126,
            "count" : 20,
            "type" : "VEC2"
        },
        {
            "bufferView" : 15,
            "componentType" : 5123,
            "count" : 30,
            "type" : "SCALAR"
        },
        {
            "bufferView" : 16,
            "componentType" : 5126,
            "count" : 24,
            "max" : [
                2,
                20,
                2
            ],
            "min" : [
                -2,
                0,
                -2
            ],
            "type" : "VEC3"
        },
        {
            "bufferView" : 17,
            "componentType" : 5126,
            "count" : 24,
            "type" : "VEC3"
        },
        {
            "bufferView" : 18,
            "componentType" : 5126,
            "count" : 24,
            "type" : "VEC2"
        },
        {
            "bufferView" : 19,
            "componentType" : 5126,
            "count" : 24,
            "max" : [
                2,
                20,
                2
            ],
            "min" : [
                -2,
                0,
                -2
            ],
            "type" : "VEC3"
        },
        {
            "bufferView" : 20,
            "componentType" : 5126,
            "count" : 24,
            "type" : "VEC3"
        },
        {
            "bufferView" : 21,
            "componentType" : 5126,
            "count" : 24,
            "type" : "VEC2"
        },
        {
            "bufferView" : 22,
            "componentType" : 5126,
            "count" : 4,
            "max" : [
                70,
                0,
                50
            ],
            "min" : [
                -70,
                0,
                -130
            ],
            "type" : "VEC3"
        },
        {
            "bufferView" : 23,
            "componentType" : 5126,
            "count" : 4,
            "type" : "VEC3"
        },
        {
            "bufferView" : 24,
            "componentType" : 5126,
            "count" : 4,
            "type" : "VEC2"
        },
        {
            "bufferView" : 25,
            "componentType" : 5123,
            "count" : 6,
            "type" : "SCALAR"
        },
        {
            "bufferView" : 26,
            "componentType" : 5126,
            "count" : 24,
            "max" : [
                1,
                2,
                1
            ],
            "min" : [
                -1,
                0,
                -1
            ],
            "type" : "VEC3"
        },
        {
            "bufferView" : 27,
            "componentType" : 5126,
            "count" : 24,
            "type" : "VEC3"
        },
        {
            "bufferView" : 28,
            "componentType" : 5126,
            "count" : 24,
            "type" : "VEC2"
        },
        {
            "bufferView" : 29,
            "componentType" : 5126,
            "count" : 24,
            "max" : [
                1,
                2,
                1
            ],
            "min" : [
                -1,
                0,
                -1
            ],
            "type" : "VEC3"
        },
        {
            "bufferView" : 30,
            "componentType" : 5126,
            "count" : 24,
            "type" : "VEC3"
        },
        {
            "bufferView" : 31,
            "componentType" : 5126,
            "count" : 24,
            "type" : "VEC2"
        }
    ],
    "bufferViews" : [
        {
            "buffer" : 0,
            "byteLength" : 288,
            "byteOffset" : 0
        },
        {
            "buffer" : 0,
            "byteLength" : 288,
            "byteOffset" : 288
        },
        {
            "buffer" : 0,
            "byteLength" : 192,
            "byteOffset" : 576
        },
        {
            "buffer" : 0,
            "byteLength" : 72,
            "byteOffset" : 768
        },
        {
            "buffer" : 0,
            "byteLength" : 240,
            "byteOffset" : 840
        },
        {
            "buffer" : 0,
            "byteLength" : 240,
            "byteOffset" : 1080
        },
        {
            "buffer" : 0,
            "byteLength" : 160,
            "byteOffset" : 1320
        },
        {
            "buffer" : 0,
            "byteLength" : 60,
            "byteOffset" : 1480
        },
        {
            "buffer" : 0,
            "byteLength" : 240,
            "byteOffset" : 1540
        },
        {
            "buffer" : 0,
            "byteLength" : 240,
            "byteOffset" : 1780
        },
        {
            "buffer" : 0,
            "byteLength" : 160,
            "byteOffset" : 2020
        },
        {
            "buffer" : 0,
            "byteLength" : 60,
            "byteOffset" : 2180
        },
        {
            "buffer" : 0,
            "byteLength" : 240,
            "byteOffset" : 2240
        },
        {
            "buffer" : 0,
            "byteLength" : 240,
            "byteOffset" : 2480
        },
        {
            "buffer" : 0,
            "byteLength" : 160,
            "byteOffset" : 2720
        },
        {
            "buffer" : 0,
            "byteLength" : 60,
            "byteOffset" : 2880
        },
        {
            "buffer" : 0,
            "byteLength" : 288,
            "byteOffset" : 2940
        },
        {
            "buffer" : 0,
            "byteLength" : 288,
            "byteOffset" : 3228
        },
        {
            "buffer" : 0,
            "byteLength" : 192,
            "byteOffset" : 3516
        },
        {
            "buffer" : 0,
            "byteLength" : 288,
            "byteOffset" : 3708
        },
        {
            "buffer" : 0,
            "byteLength" : 288,
            "byteOffset" : 3996
        },
        {
            "buffer" : 0,
            "byteLength" : 192,
            "byteOffset" : 4284
        },
        {
            "buffer" : 0,
            "byteLength" : 48,
            "byteOffset" : 4476
        },
        {
            "buffer" : 0,
            "byteLength" : 48,
            "byteOffset" : 4524
        },
        {
            "buffer" : 0,
            "byteLength" : 32,
            "byteOffset" : 4572
        },
        {
            "buffer" : 0,
            "byteLength" : 12,
            "byteOffset" : 4604
        },
        {
            "buffer" : 0,
            "byteLength" : 288,
            "byteOffset" : 4616
        },
        {
            "buffer" : 0,
            "byteLength" : 288,
            "byteOffset" : 4904
        },
        {
            "buffer" : 0,
            "byteLength" : 192,
            "byteOffset" : 5192
        },
        {
            "buffer" : 0,
            "byteLength" : 288,
            "byteOffset" : 5384
        },
        {
            "buffer" : 0,
            "byteLength" : 288,
            "byteOffset" : 5672
        },
        {
            "buffer" : 0,
            "byteLength" : 192,
            "byteOffset" : 5960
        }
    ],
    "samplers" : [
        {
            "magFilter" : 9729,
            "minFilter" : 9987
        }
    ],
    "buffers" : [
        {
            "byteLength" : 6152,
            "uri" : "spooky_level.bin"
        }
    ]
}
