{
    "asset" : {
        "generator" : "Khronos glTF Blender I/O v3.2.40",
        "version" : "2.0"
    },
    "scene" : 0,
    "scenes" : [
        {
            "name" : "Scene",
            "nodes" : [
                23,
                24
            ]
        }
    ],
    "nodes" : [
        {
            "mesh" : 0,
            "name" : "back wall",
            "scale" : [
                75,
                10,
                1
            ],
            "translation" : [
                0,
                10,
                -128.64474487304688
            ]
        },
        {
            "mesh" : 1,
            "name" : "back wall.001",
            "rotation" : [
                0,
                0.7071068286895752,
                0,
                0.7071068286895752
            ],
            "scale" : [
                75,
                10,
                1
            ],
            "translation" : [
                -68.39167785644531,
                10,
                -54.70847702026367
            ]
        },
        {
            "mesh" : 2,
            "name" : "back wall.002",
            "rotation" : [
                0,
                0.7071068286895752,
                0,
                0.7071068286895752
            ],
            "scale" : [
                75,
                10,
                1
            ],
            "translation" : [
                70.82756042480469,
                10,
                -54.921348571777344
            ]
        },
        {
            "mesh" : 3,
            "name" : "boo",
            "rotation" : [
                0,
                0.9999845623970032,
                0,
                0.005555470008403063
            ],
            "scale" : [
                0.10000002384185791,
                0.10000000149011612,
                0.10000002384185791
            ],
            "translation" : [
                0,
                0,
                -109.92847442626953
            ]
        },
        {
            "mesh" : 4,
            "name" : "Cube",
            "translation" : [
                50,
                0,
                -80
            ]
        },
        {
            "mesh" : 4,
            "name" : "Cube.001",
            "translation" : [
                25,
                0,
                -5
            ]
        },
        {
            "mesh" : 4,
            "name" : "Cube.002",
            "translation" : [
                50,
                0,
                -5
            ]
        },
        {
            "mesh" : 4,
            "name" : "Cube.003",
            "translation" : [
                -25,
                0,
                -5
            ]
        },
        {
            "mesh" : 4,
            "name" : "Cube.004",
            "translation" : [
                -55,
                0,
                -5
            ]
        },
        {
            "mesh" : 4,
            "name" : "Cube.005",
            "translation" : [
                25,
                0,
                -80
            ]
        },
        {
            "mesh" : 4,
            "name" : "Cube.006",
            "translation" : [
                25,
                0,
                -45
            ]
        },
        {
            "mesh" : 4,
            "name" : "Cube.007",
            "translation" : [
                50,
                0,
                -45
            ]
        },
        {
            "mesh" : 4,
            "name" : "Cube.008",
            "translation" : [
                -25,
                0,
                -45
            ]
        },
        {
            "mesh" : 4,
            "name" : "Cube.009",
            "translation" : [
                -55,
                0,
                -45
            ]
        },
        {
            "mesh" : 4,
            "name" : "Cube.010",
            "translation" : [
                -55,
                0,
                -80
            ]
        },
        {
            "mesh" : 4,
            "name" : "Cube.011",
            "translation" : [
                25,
                0,
                30
            ]
        },
        {
            "mesh" : 4,
            "name" : "Cube.012",
            "translation" : [
                50,
                0,
                30
            ]
        },
        {
            "mesh" : 4,
            "name" : "Cube.013",
            "translation" : [
                -25,
                0,
                30
            ]
        },
        {
            "mesh" : 4,
            "name" : "Cube.014",
            "translation" : [
                -55,
                0,
                30
            ]
        },
        {
            "mesh" : 5,
            "name" : "Cube.015",
            "translation" : [
                -25,
                0,
                -80
            ]
        },
        {
            "mesh" : 6,
            "name" : "gorund plane"
        },
        {
            "name" : "Zombie Spawn",
            "scale" : [
                10,
                10,
                10
            ],
            "translation" : [
                0,
                0,
                -62.27423095703125
            ]
        },
        {
            "children" : [
                0,
                1,
                2,
                3,
                4,
                5,
                6,
                7,
                8,
                9,
                10,
                11,
                12,
                13,
                14,
                15,
                16,
                17,
                18,
                19,
                20,
                21
            ],
            "name" : "Scene"
        },
        {
            "children" : [
                22
            ],
            "name" : "Spooky Level"
        },
        {
            "name" : "Player Ref Point",
            "translation" : [
                0,
                0,
                45
            ]
        }
    ],
    "materials" : [
        {
            "doubleSided" : true,
            "name" : "Material.001",
            "pbrMetallicRoughness" : {
                "baseColorTexture" : {
                    "index" : 0
                },
                "metallicFactor" : 0,
                "roughnessFactor" : 0.5
            }
        },
        {
            "doubleSided" : true,
            "name" : "Material.033_boo_grp.png.001",
            "pbrMetallicRoughness" : {
                "baseColorTexture" : {
                    "index" : 1
                },
                "metallicFactor" : 0
            }
        },
        {
            "doubleSided" : true,
            "name" : "Material.032_boo_grp.png.001",
            "pbrMetallicRoughness" : {
                "baseColorTexture" : {
                    "index" : 2
                },
                "metallicFactor" : 0
            }
        },
        {
            "doubleSided" : true,
            "name" : "Material.031_boo_grp.png.001",
            "pbrMetallicRoughness" : {
                "baseColorTexture" : {
                    "index" : 3
                },
                "metallicFactor" : 0
            }
        },
        {
            "doubleSided" : true,
            "name" : "ground_tex",
            "pbrMetallicRoughness" : {
                "baseColorTexture" : {
                    "index" : 4
                },
                "metallicFactor" : 0,
                "roughnessFactor" : 0.5
            }
        }
    ],
    "meshes" : [
        {
            "name" : "Cube",
            "primitives" : [
                {
                    "attributes" : {
                        "POSITION" : 0,
                        "NORMAL" : 1,
                        "TEXCOORD_0" : 2
                    },
                    "indices" : 3,
                    "material" : 0
                }
            ]
        },
        {
            "name" : "Cube.003",
            "primitives" : [
                {
                    "attributes" : {
                        "POSITION" : 4,
                        "NORMAL" : 5,
                        "TEXCOORD_0" : 6
                    },
                    "indices" : 3,
                    "material" : 0
                }
            ]
        },
        {
            "name" : "Cube.004",
            "primitives" : [
                {
                    "attributes" : {
                        "POSITION" : 7,
                        "NORMAL" : 8,
                        "TEXCOORD_0" : 9
                    },
                    "indices" : 3,
                    "material" : 0
                }
            ]
        },
        {
            "name" : "boo",
            "primitives" : [
                {
                    "attributes" : {
                        "POSITION" : 10,
                        "NORMAL" : 11,
                        "TEXCOORD_0" : 12
                    },
                    "indices" : 13,
                    "material" : 1
                },
                {
                    "attributes" : {
                        "POSITION" : 14,
                        "NORMAL" : 15,
                        "TEXCOORD_0" : 16
                    },
                    "indices" : 17,
                    "material" : 2
                },
                {
                    "attributes" : {
                        "POSITION" : 18,
                        "NORMAL" : 19,
                        "TEXCOORD_0" : 20
                    },
                    "indices" : 21,
                    "material" : 3
                }
            ]
        },
        {
            "name" : "Cube.001",
            "primitives" : [
                {
                    "attributes" : {
                        "POSITION" : 22,
                        "NORMAL" : 23,
                        "TEXCOORD_0" : 24
                    },
                    "indices" : 3,
                    "material" : 0
                }
            ]
        },
        {
            "name" : "Cube.002",
            "primitives" : [
                {
                    "attributes" : {
                        "POSITION" : 25,
                        "NORMAL" : 26,
                        "TEXCOORD_0" : 27
                    },
                    "indices" : 3,
                    "material" : 0
                }
            ]
        },
        {
            "name" : "Plane",
            "primitives" : [
                {
                    "attributes" : {
                        "POSITION" : 28,
                        "NORMAL" : 29,
                        "TEXCOORD_0" : 30
                    },
                    "indices" : 31,
                    "material" : 4
                }
            ]
        }
    ],
    "textures" : [
        {
            "sampler" : 0,
            "source" : 0
        },
        {
            "sampler" : 0,
            "source" : 1
        },
        {
            "sampler" : 0,
            "source" : 1
        },
        {
            "sampler" : 0,
            "source" : 1
        },
        {
            "sampler" : 0,
            "source" : 2
        }
    ],
    "images" : [
        {
            "mimeType" : "image/png",
            "name" : "stone",
            "uri" : "stone.png"
        },
        {
            "mimeType" : "image/png",
            "name" : "boo_grp",
            "uri" : "boo_grp.png"
        },
        {
            "mimeType" : "image/png",
            "name" : "grass",
            "uri" : "grass.png"
        }
    ],
    "accessors" : [
        {
            "bufferView" : 0,
            "componentType" : 5126,
            "count" : 24,
            "max" : [
                1,
                1,
                1
            ],
            "min" : [
                -1,
                -1,
                -1
            ],
            "type" : "VEC3"
        },
        {
            "bufferView" : 1,
            "componentType" : 5126,
            "count" : 24,
            "type" : "VEC3"
        },
        {
            "bufferView" : 2,
            "componentType" : 5126,
            "count" : 24,
            "type" : "VEC2"
        },
        {
            "bufferView" : 3,
            "componentType" : 5123,
            "count" : 36,
            "type" : "SCALAR"
        },
        {
            "bufferView" : 4,
            "componentType" : 5126,
            "count" : 24,
            "max" : [
                1,
                1,
                1
            ],
            "min" : [
                -1,
                -1,
                -1
            ],
            "type" : "VEC3"
        },
        {
            "bufferView" : 5,
            "componentType" : 5126,
            "count" : 24,
            "type" : "VEC3"
        },
        {
            "bufferView" : 6,
            "componentType" : 5126,
            "count" : 24,
            "type" : "VEC2"
        },
        {
            "bufferView" : 7,
            "componentType" : 5126,
            "count" : 24,
            "max" : [
                1,
                1,
                1
            ],
            "min" : [
                -1,
                -1,
                -1
            ],
            "type" : "VEC3"
        },
        {
            "bufferView" : 8,
            "componentType" : 5126,
            "count" : 24,
            "type" : "VEC3"
        },
        {
            "bufferView" : 9,
            "componentType" : 5126,
            "count" : 24,
            "type" : "VEC2"
        },
        {
            "bufferView" : 10,
            "componentType" : 5126,
            "count" : 162,
            "max" : [
                164.451171875,
                235.68312072753906,
                155.48703002929688
            ],
            "min" : [
                -161.59080505371094,
                0.0004119873046875,
                -155.4993133544922
            ],
            "type" : "VEC3"
        },
        {
            "bufferView" : 11,
            "componentType" : 5126,
            "count" : 162,
            "type" : "VEC3"
        },
        {
            "bufferView" : 12,
            "componentType" : 5126,
            "count" : 162,
            "type" : "VEC2"
        },
        {
            "bufferView" : 13,
            "componentType" : 5123,
            "count" : 162,
            "type" : "SCALAR"
        },
        {
            "bufferView" : 14,
            "componentType" : 5126,
            "count" : 6,
            "max" : [
                91.80552673339844,
                202.51608276367188,
                -110.35794830322266
            ],
            "min" : [
                -83.8812484741211,
                61.15707015991211,
                -155.4993133544922
            ],
            "type" : "VEC3"
        },
        {
            "bufferView" : 15,
            "componentType" : 5126,
            "count" : 6,
            "type" : "VEC3"
        },
        {
            "bufferView" : 16,
            "componentType" : 5126,
            "count" : 6,
            "type" : "VEC2"
        },
        {
            "bufferView" : 17,
            "componentType" : 5123,
            "count" : 12,
            "type" : "SCALAR"
        },
        {
            "bufferView" : 18,
            "componentType" : 5126,
            "count" : 6,
            "max" : [
                91.80552673339844,
                118.02499389648438,
                -108.21083068847656
            ],
            "min" : [
                -83.8812484741211,
                9.541481018066406,
                -152.0796661376953
            ],
            "type" : "VEC3"
        },
        {
            "bufferView" : 19,
            "componentType" : 5126,
            "count" : 6,
            "type" : "VEC3"
        },
        {
            "bufferView" : 20,
            "componentType" : 5126,
            "count" : 6,
            "type" : "VEC2"
        },
        {
            "bufferView" : 21,
            "componentType" : 5123,
            "count" : 12,
            "type" : "SCALAR"
        },
        {
            "bufferView" : 22,
            "componentType" : 5126,
            "count" : 24,
            "max" : [
                2,
                20,
                2
            ],
            "min" : [
                -2,
                0,
                -2
            ],
            "type" : "VEC3"
        },
        {
            "bufferView" : 23,
            "componentType" : 5126,
            "count" : 24,
            "type" : "VEC3"
        },
        {
            "bufferView" : 24,
            "componentType" : 5126,
            "count" : 24,
            "type" : "VEC2"
        },
        {
            "bufferView" : 25,
            "componentType" : 5126,
            "count" : 24,
            "max" : [
                2,
                20,
                2
            ],
            "min" : [
                -2,
                0,
                -2
            ],
            "type" : "VEC3"
        },
        {
            "bufferView" : 26,
            "componentType" : 5126,
            "count" : 24,
            "type" : "VEC3"
        },
        {
            "bufferView" : 27,
            "componentType" : 5126,
            "count" : 24,
            "type" : "VEC2"
        },
        {
            "bufferView" : 28,
            "componentType" : 5126,
            "count" : 4,
            "max" : [
                70,
                0,
                50
            ],
            "min" : [
                -70,
                0,
                -130
            ],
            "type" : "VEC3"
        },
        {
            "bufferView" : 29,
            "componentType" : 5126,
            "count" : 4,
            "type" : "VEC3"
        },
        {
            "bufferView" : 30,
            "componentType" : 5126,
            "count" : 4,
            "type" : "VEC2"
        },
        {
            "bufferView" : 31,
            "componentType" : 5123,
            "count" : 6,
            "type" : "SCALAR"
        }
    ],
    "bufferViews" : [
        {
            "buffer" : 0,
            "byteLength" : 288,
            "byteOffset" : 0
        },
        {
            "buffer" : 0,
            "byteLength" : 288,
            "byteOffset" : 288
        },
        {
            "buffer" : 0,
            "byteLength" : 192,
            "byteOffset" : 576
        },
        {
            "buffer" : 0,
            "byteLength" : 72,
            "byteOffset" : 768
        },
        {
            "buffer" : 0,
            "byteLength" : 288,
            "byteOffset" : 840
        },
        {
            "buffer" : 0,
            "byteLength" : 288,
            "byteOffset" : 1128
        },
        {
            "buffer" : 0,
            "byteLength" : 192,
            "byteOffset" : 1416
        },
        {
            "buffer" : 0,
            "byteLength" : 288,
            "byteOffset" : 1608
        },
        {
            "buffer" : 0,
            "byteLength" : 288,
            "byteOffset" : 1896
        },
        {
            "buffer" : 0,
            "byteLength" : 192,
            "byteOffset" : 2184
        },
        {
            "buffer" : 0,
            "byteLength" : 1944,
            "byteOffset" : 2376
        },
        {
            "buffer" : 0,
            "byteLength" : 1944,
            "byteOffset" : 4320
        },
        {
            "buffer" : 0,
            "byteLength" : 1296,
            "byteOffset" : 6264
        },
        {
            "buffer" : 0,
            "byteLength" : 324,
            "byteOffset" : 7560
        },
        {
            "buffer" : 0,
            "byteLength" : 72,
            "byteOffset" : 7884
        },
        {
            "buffer" : 0,
            "byteLength" : 72,
            "byteOffset" : 7956
        },
        {
            "buffer" : 0,
            "byteLength" : 48,
            "byteOffset" : 8028
        },
        {
            "buffer" : 0,
            "byteLength" : 24,
            "byteOffset" : 8076
        },
        {
            "buffer" : 0,
            "byteLength" : 72,
            "byteOffset" : 8100
        },
        {
            "buffer" : 0,
            "byteLength" : 72,
            "byteOffset" : 8172
        },
        {
            "buffer" : 0,
            "byteLength" : 48,
            "byteOffset" : 8244
        },
        {
            "buffer" : 0,
            "byteLength" : 24,
            "byteOffset" : 8292
        },
        {
            "buffer" : 0,
            "byteLength" : 288,
            "byteOffset" : 8316
        },
        {
            "buffer" : 0,
            "byteLength" : 288,
            "byteOffset" : 8604
        },
        {
            "buffer" : 0,
            "byteLength" : 192,
            "byteOffset" : 8892
        },
        {
            "buffer" : 0,
            "byteLength" : 288,
            "byteOffset" : 9084
        },
        {
            "buffer" : 0,
            "byteLength" : 288,
            "byteOffset" : 9372
        },
        {
            "buffer" : 0,
            "byteLength" : 192,
            "byteOffset" : 9660
        },
        {
            "buffer" : 0,
            "byteLength" : 48,
            "byteOffset" : 9852
        },
        {
            "buffer" : 0,
            "byteLength" : 48,
            "byteOffset" : 9900
        },
        {
            "buffer" : 0,
            "byteLength" : 32,
            "byteOffset" : 9948
        },
        {
            "buffer" : 0,
            "byteLength" : 12,
            "byteOffset" : 9980
        }
    ],
    "samplers" : [
        {
            "magFilter" : 9729,
            "minFilter" : 9987
        }
    ],
    "buffers" : [
        {
            "byteLength" : 9992,
            "uri" : "spooky_level.bin"
        }
    ]
}
